<svg width="908" height="415" viewBox="0 0 908 415" fill="none" xmlns="http://www.w3.org/2000/svg">
<path d="M809.291 261.411C805.765 261.411 802.506 260.647 799.514 259.118C796.628 257.494 794.277 255.393 792.461 252.814C790.751 250.139 789.896 247.226 789.896 244.074V151.084H803.04V244.074C803.04 245.602 803.628 246.939 804.803 248.086C806.085 249.136 807.582 249.662 809.291 249.662H825V261.411H809.291Z" fill="white"/>
<path d="M712.068 261.41C708.894 261.41 705.961 260.626 703.268 259.059C700.672 257.393 698.556 255.237 696.921 252.591C695.382 249.847 694.613 246.859 694.613 243.625V212.758H767.893V193.943C767.893 192.375 767.316 191.052 766.162 189.975C765.104 188.799 763.806 188.211 762.267 188.211H694.613V176.158H762.267C765.537 176.158 768.47 176.991 771.066 178.657C773.759 180.224 775.875 182.38 777.414 185.124C779.048 187.77 779.866 190.709 779.866 193.943V261.41H712.068ZM712.068 249.357H767.893V224.811H706.442V243.625C706.442 245.193 706.971 246.565 708.029 247.741C709.183 248.819 710.529 249.357 712.068 249.357Z" fill="white"/>
<path d="M615.758 261.41C612.772 261.41 610.011 260.626 607.477 259.059C605.033 257.393 603.042 255.237 601.503 252.591C600.055 249.847 599.331 246.859 599.331 243.625V193.943C599.331 190.709 600.055 187.77 601.503 185.124C603.042 182.38 605.033 180.224 607.477 178.657C610.011 176.991 612.772 176.158 615.758 176.158H679.297V188.211H615.758C614.31 188.211 613.043 188.799 611.957 189.975C610.961 191.052 610.464 192.375 610.464 193.943V243.625C610.464 245.193 610.961 246.565 611.957 247.741C613.043 248.819 614.31 249.357 615.758 249.357H679.569V261.41H615.758Z" fill="white"/>
<path d="M569.241 261.411V178.307H584.286V261.411H569.241ZM569.241 162.833V151.084H584.286V162.833H569.241Z" fill="white"/>
<path d="M488.511 291.5V279.666H537.742C539.192 279.666 540.416 279.096 541.413 277.955C542.501 276.91 543.045 275.626 543.045 274.106V258.85H490.415C487.423 258.85 484.658 258.09 482.119 256.569C479.671 254.953 477.676 252.862 476.135 250.296C474.684 247.635 473.959 244.736 473.959 241.599V193.409C473.959 190.272 474.684 187.421 476.135 184.855C477.676 182.193 479.671 180.102 482.119 178.581C484.658 176.966 487.423 176.158 490.415 176.158H537.742C540.824 176.158 543.589 176.966 546.037 178.581C548.576 180.102 550.571 182.193 552.021 184.855C553.472 187.421 554.197 190.272 554.197 193.409V274.106C554.197 277.337 553.472 280.236 552.021 282.803C550.571 285.464 548.576 287.555 546.037 289.076C543.589 290.692 540.824 291.5 537.742 291.5H488.511ZM490.415 247.159H537.742C539.192 247.159 540.416 246.637 541.413 245.591C542.501 244.45 543.045 243.12 543.045 241.599V193.409C543.045 191.888 542.501 190.605 541.413 189.56C540.416 188.419 539.192 187.849 537.742 187.849H490.415C488.964 187.849 487.695 188.419 486.607 189.56C485.61 190.605 485.111 191.888 485.111 193.409V241.599C485.111 243.12 485.61 244.45 486.607 245.591C487.695 246.637 488.964 247.159 490.415 247.159Z" fill="white"/>
<path d="M395.104 261.41C392.117 261.41 389.357 260.626 386.822 259.059C384.379 257.393 382.387 255.237 380.849 252.591C379.4 249.847 378.676 246.859 378.676 243.625V193.943C378.676 190.709 379.4 187.77 380.849 185.124C382.387 182.38 384.379 180.224 386.822 178.657C389.357 176.991 392.117 176.158 395.104 176.158H442.351C445.428 176.158 448.189 176.991 450.633 178.657C453.167 180.224 455.158 182.38 456.606 185.124C458.145 187.77 458.914 190.709 458.914 193.943V243.625C458.914 246.859 458.145 249.847 456.606 252.591C455.158 255.237 453.167 257.393 450.633 259.059C448.189 260.626 445.428 261.41 442.351 261.41H395.104ZM395.104 249.357H442.351C443.799 249.357 445.021 248.819 446.016 247.741C447.103 246.565 447.646 245.193 447.646 243.625V193.943C447.646 192.375 447.103 191.052 446.016 189.975C445.021 188.799 443.799 188.211 442.351 188.211H395.104C393.656 188.211 392.389 188.799 391.303 189.975C390.307 191.052 389.809 192.375 389.809 193.943V243.625C389.809 245.193 390.307 246.565 391.303 247.741C392.389 248.819 393.656 249.357 395.104 249.357Z" fill="white"/>
<path d="M268.349 261.412V156.1H279.633V249.581H368.647V261.412H268.349Z" fill="white"/>
<g clip-path="url(#clip0_2241_152)">
<path d="M164.647 279.844C147.866 280.425 131.338 275.642 117.483 266.195C103.628 256.748 93.1752 243.134 87.654 227.345C82.1328 211.555 81.8324 194.421 86.7995 178.45C91.7655 162.479 101.737 148.511 115.253 138.59C127.504 129.597 142.084 124.358 157.211 123.456C159.804 123.302 161.913 125.413 161.913 128L161.913 148.246C161.913 150.833 159.801 152.907 157.215 153.155C148.447 153.997 140.039 157.187 132.903 162.426C124.499 168.594 118.3 177.279 115.213 187.209C112.125 197.138 112.311 207.791 115.743 217.607C119.176 227.424 125.675 235.889 134.289 241.763C142.903 247.636 153.179 250.61 163.613 250.248C174.047 249.887 184.09 246.208 192.273 239.753C200.456 233.298 206.349 224.404 209.088 214.373C211.414 205.855 211.361 196.896 208.981 188.453C208.279 185.962 209.459 183.252 211.882 182.316L230.841 175C233.263 174.064 236.003 175.259 236.796 177.723C241.418 192.09 241.783 207.519 237.79 222.142C233.384 238.275 223.907 252.581 210.746 262.964C197.584 273.347 181.429 279.262 164.647 279.844Z" fill="white"/>
</g>
<defs>
<clipPath id="clip0_2241_152">
<rect width="157.266" height="157.266" fill="white" transform="translate(240.266 280.266) rotate(-180)"/>
</clipPath>
</defs>
</svg>
