<svg width="280" height="80" viewBox="0 0 280 80" fill="none" xmlns="http://www.w3.org/2000/svg">
<path d="M274.072 60.938C272.741 60.938 271.512 60.6497 270.382 60.0729C269.294 59.4601 268.406 58.6671 267.721 57.6939C267.076 56.6846 266.753 55.5852 266.753 54.3957V19.3052H271.713V54.3957C271.713 54.9725 271.935 55.4771 272.379 55.9096C272.862 56.3061 273.427 56.5044 274.072 56.5044H280V60.938H274.072Z" fill="white"/>
<path d="M237.384 60.9379C236.186 60.9379 235.08 60.6421 234.063 60.0505C233.084 59.4218 232.285 58.6083 231.668 57.6099C231.088 56.5745 230.797 55.4467 230.797 54.2264V42.5784H258.45V35.4786C258.45 34.8869 258.232 34.3877 257.797 33.981C257.398 33.5373 256.908 33.3154 256.327 33.3154H230.797V28.7671H256.327C257.561 28.7671 258.668 29.0814 259.648 29.71C260.664 30.3017 261.462 31.1152 262.043 32.1506C262.66 33.149 262.968 34.2583 262.968 35.4786V60.9379H237.384ZM237.384 56.3896H258.45V47.1267H235.261V54.2264C235.261 54.8181 235.461 55.3358 235.86 55.7795C236.295 56.1863 236.803 56.3896 237.384 56.3896Z" fill="white"/>
<path d="M201.041 60.9379C199.914 60.9379 198.872 60.6421 197.916 60.0505C196.994 59.4218 196.242 58.6083 195.662 57.6099C195.115 56.5745 194.842 55.4467 194.842 54.2264V35.4786C194.842 34.2583 195.115 33.149 195.662 32.1506C196.242 31.1152 196.994 30.3017 197.916 29.71C198.872 29.0814 199.914 28.7671 201.041 28.7671H225.018V33.3154H201.041C200.494 33.3154 200.016 33.5373 199.606 33.981C199.231 34.3877 199.043 34.8869 199.043 35.4786V54.2264C199.043 54.8181 199.231 55.3358 199.606 55.7795C200.016 56.1863 200.494 56.3896 201.041 56.3896H225.12V60.9379H201.041Z" fill="white"/>
<path d="M183.487 60.938V29.5782H189.165V60.938H183.487ZM183.487 23.7388V19.3052H189.165V23.7388H183.487Z" fill="white"/>
<path d="M153.023 72.2923V67.8268H171.601C172.148 67.8268 172.61 67.6116 172.986 67.1812C173.397 66.7867 173.602 66.3025 173.602 65.7286V59.9718H153.741C152.612 59.9718 151.569 59.6849 150.611 59.111C149.687 58.5013 148.934 57.7122 148.353 56.7438C147.805 55.7395 147.532 54.6455 147.532 53.4619V35.277C147.532 34.0934 147.805 33.0174 148.353 32.049C148.934 31.0447 149.687 30.2556 150.611 29.6817C151.569 29.072 152.612 28.7671 153.741 28.7671H171.601C172.764 28.7671 173.807 29.072 174.731 29.6817C175.689 30.2556 176.442 31.0447 176.989 32.049C177.536 33.0174 177.81 34.0934 177.81 35.277V65.7286C177.81 66.9481 177.536 68.042 176.989 69.0105C176.442 70.0148 175.689 70.8038 174.731 71.3777C173.807 71.9875 172.764 72.2923 171.601 72.2923H153.023ZM153.741 55.5601H171.601C172.148 55.5601 172.61 55.3629 172.986 54.9683C173.397 54.5379 173.602 54.0358 173.602 53.4619V35.277C173.602 34.7032 173.397 34.219 172.986 33.8244C172.61 33.394 172.148 33.1788 171.601 33.1788H153.741C153.194 33.1788 152.715 33.394 152.304 33.8244C151.928 34.219 151.74 34.7032 151.74 35.277V53.4619C151.74 54.0358 151.928 54.5379 152.304 54.9683C152.715 55.3629 153.194 55.5601 153.741 55.5601Z" fill="white"/>
<path d="M117.775 60.9379C116.648 60.9379 115.606 60.6421 114.65 60.0505C113.728 59.4218 112.976 58.6083 112.396 57.6099C111.849 56.5745 111.576 55.4467 111.576 54.2264V35.4786C111.576 34.2583 111.849 33.149 112.396 32.1506C112.976 31.1152 113.728 30.3017 114.65 29.71C115.606 29.0814 116.648 28.7671 117.775 28.7671H135.604C136.765 28.7671 137.807 29.0814 138.729 29.71C139.686 30.3017 140.437 31.1152 140.983 32.1506C141.564 33.149 141.854 34.2583 141.854 35.4786V54.2264C141.854 55.4467 141.564 56.5745 140.983 57.6099C140.437 58.6083 139.686 59.4218 138.729 60.0505C137.807 60.6421 136.765 60.9379 135.604 60.9379H117.775ZM117.775 56.3896H135.604C136.15 56.3896 136.612 56.1863 136.987 55.7795C137.397 55.3358 137.602 54.8181 137.602 54.2264V35.4786C137.602 34.8869 137.397 34.3877 136.987 33.981C136.612 33.5373 136.15 33.3154 135.604 33.3154H117.775C117.229 33.3154 116.75 33.5373 116.341 33.981C115.965 34.3877 115.777 34.8869 115.777 35.4786V54.2264C115.777 54.8181 115.965 55.3358 116.341 55.7795C116.75 56.1863 117.229 56.3896 117.775 56.3896Z" fill="white"/>
<path d="M69.9432 60.9387V21.1982H74.2011V56.4741H107.791V60.9387H69.9432Z" fill="white"/>
<g clip-path="url(#clip0_2241_116)">
<path d="M30.8104 67.8942C24.4778 68.1137 18.2408 66.3086 13.0126 62.7438C7.78436 59.179 3.83924 54.0409 1.75576 48.0827C-0.327539 42.1247 -0.440785 35.659 1.43349 29.6325C3.30748 23.6056 7.0704 18.3345 12.1708 14.5905C16.794 11.197 22.2956 9.21985 28.0038 8.87957C28.9825 8.82126 29.7781 9.61833 29.7782 10.5944L29.7782 18.235C29.778 19.211 28.9815 19.9938 28.0058 20.0876C24.6972 20.4053 21.5239 21.6089 18.831 23.5856C15.6597 25.9132 13.3203 29.1903 12.1552 32.9372C10.99 36.6841 11.0602 40.7045 12.3554 44.4089C13.651 48.1133 16.104 51.3077 19.3544 53.5241C22.6051 55.7403 26.4827 56.8617 30.4198 56.7253C34.3571 56.5889 38.1474 55.2014 41.2352 52.7653C44.323 50.3293 46.5465 46.9732 47.58 43.1882C48.4578 39.9737 48.438 36.593 47.5399 33.4069C47.2752 32.467 47.7205 31.4446 48.6347 31.0915L55.789 28.3307C56.7032 27.9777 57.7369 28.4283 58.036 29.3581C59.7804 34.7798 59.9178 40.6017 58.411 46.1198C56.7487 52.2078 53.1724 57.6059 48.206 61.5241C43.2394 65.4422 37.1433 67.6748 30.8104 67.8942Z" fill="white"/>
</g>
<defs>
<clipPath id="clip0_2241_116">
<rect width="59.3457" height="59.3457" fill="white" transform="translate(59.3457 68.0532) rotate(-180)"/>
</clipPath>
</defs>
</svg>
