<svg width="280" height="80" viewBox="0 0 280 80" fill="none" xmlns="http://www.w3.org/2000/svg">
<path d="M274.072 60.938C272.741 60.938 271.512 60.6497 270.382 60.0729C269.294 59.4601 268.407 58.6671 267.721 57.6939C267.076 56.6846 266.753 55.5852 266.753 54.3957V19.3052H271.713V54.3957C271.713 54.9725 271.935 55.4771 272.379 55.9096C272.862 56.3061 273.427 56.5044 274.072 56.5044H280V60.938H274.072Z" fill="black"/>
<path d="M237.384 60.9379C236.186 60.9379 235.08 60.6421 234.063 60.0505C233.084 59.4218 232.285 58.6083 231.668 57.6099C231.088 56.5745 230.797 55.4467 230.797 54.2264V42.5784H258.45V35.4786C258.45 34.8869 258.232 34.3877 257.797 33.981C257.398 33.5373 256.908 33.3154 256.327 33.3154H230.797V28.7671H256.327C257.561 28.7671 258.668 29.0814 259.648 29.71C260.664 30.3017 261.462 31.1152 262.043 32.1506C262.66 33.149 262.968 34.2583 262.968 35.4786V60.9379H237.384ZM237.384 56.3896H258.45V47.1267H235.261V54.2264C235.261 54.8181 235.461 55.3358 235.86 55.7795C236.295 56.1863 236.803 56.3896 237.384 56.3896Z" fill="black"/>
<path d="M201.041 60.9379C199.914 60.9379 198.872 60.6421 197.916 60.0505C196.994 59.4218 196.242 58.6083 195.662 57.6099C195.115 56.5745 194.842 55.4467 194.842 54.2264V35.4786C194.842 34.2583 195.115 33.149 195.662 32.1506C196.242 31.1152 196.994 30.3017 197.916 29.71C198.872 29.0814 199.914 28.7671 201.041 28.7671H225.018V33.3154H201.041C200.494 33.3154 200.016 33.5373 199.606 33.981C199.231 34.3877 199.043 34.8869 199.043 35.4786V54.2264C199.043 54.8181 199.231 55.3358 199.606 55.7795C200.016 56.1863 200.494 56.3896 201.041 56.3896H225.12V60.9379H201.041Z" fill="black"/>
<path d="M183.487 60.938V29.5782H189.165V60.938H183.487ZM183.487 23.7388V19.3052H189.165V23.7388H183.487Z" fill="black"/>
<path d="M153.023 72.2923V67.8268H171.601C172.148 67.8268 172.61 67.6116 172.986 67.1812C173.397 66.7867 173.602 66.3025 173.602 65.7286V59.9718H153.741C152.612 59.9718 151.569 59.6849 150.611 59.111C149.687 58.5013 148.935 57.7122 148.353 56.7438C147.805 55.7395 147.532 54.6455 147.532 53.4619V35.277C147.532 34.0934 147.805 33.0174 148.353 32.049C148.935 31.0447 149.687 30.2556 150.611 29.6817C151.569 29.072 152.612 28.7671 153.741 28.7671H171.601C172.764 28.7671 173.807 29.072 174.731 29.6817C175.689 30.2556 176.442 31.0447 176.989 32.049C177.537 33.0174 177.81 34.0934 177.81 35.277V65.7286C177.81 66.9481 177.537 68.042 176.989 69.0105C176.442 70.0148 175.689 70.8038 174.731 71.3777C173.807 71.9875 172.764 72.2923 171.601 72.2923H153.023ZM153.741 55.5601H171.601C172.148 55.5601 172.61 55.3629 172.986 54.9683C173.397 54.5379 173.602 54.0358 173.602 53.4619V35.277C173.602 34.7032 173.397 34.219 172.986 33.8244C172.61 33.394 172.148 33.1788 171.601 33.1788H153.741C153.194 33.1788 152.715 33.394 152.304 33.8244C151.928 34.219 151.74 34.7032 151.74 35.277V53.4619C151.74 54.0358 151.928 54.5379 152.304 54.9683C152.715 55.3629 153.194 55.5601 153.741 55.5601Z" fill="black"/>
<path d="M117.775 60.9379C116.648 60.9379 115.606 60.6421 114.65 60.0505C113.728 59.4218 112.976 58.6083 112.396 57.6099C111.849 56.5745 111.576 55.4467 111.576 54.2264V35.4786C111.576 34.2583 111.849 33.149 112.396 32.1506C112.976 31.1152 113.728 30.3017 114.65 29.71C115.606 29.0814 116.648 28.7671 117.775 28.7671H135.604C136.765 28.7671 137.807 29.0814 138.729 29.71C139.686 30.3017 140.437 31.1152 140.983 32.1506C141.564 33.149 141.854 34.2583 141.854 35.4786V54.2264C141.854 55.4467 141.564 56.5745 140.983 57.6099C140.437 58.6083 139.686 59.4218 138.729 60.0505C137.807 60.6421 136.765 60.9379 135.604 60.9379H117.775ZM117.775 56.3896H135.604C136.151 56.3896 136.612 56.1863 136.987 55.7795C137.397 55.3358 137.602 54.8181 137.602 54.2264V35.4786C137.602 34.8869 137.397 34.3877 136.987 33.981C136.612 33.5373 136.151 33.3154 135.604 33.3154H117.775C117.229 33.3154 116.75 33.5373 116.341 33.981C115.965 34.3877 115.777 34.8869 115.777 35.4786V54.2264C115.777 54.8181 115.965 55.3358 116.341 55.7795C116.75 56.1863 117.229 56.3896 117.775 56.3896Z" fill="black"/>
<path d="M69.9432 60.9387V21.1982H74.2011V56.4741H107.791V60.9387H69.9432Z" fill="black"/>
<g clip-path="url(#clip0_2241_128)">
<path d="M30.8106 67.8945C24.4781 68.1139 18.2409 66.3088 13.0128 62.7441C7.78456 59.1792 3.83944 54.0412 1.75596 48.0829C-0.327478 42.1247 -0.440713 35.6585 1.4337 29.6318C3.30772 23.605 7.0707 18.3346 12.171 14.5908C16.7943 11.1972 22.2958 9.2201 28.004 8.87982C28.9827 8.82158 29.7784 9.61851 29.7784 10.5947L29.7784 18.2343C29.7784 19.2104 28.9818 19.993 28.006 20.0869C24.6975 20.4046 21.524 21.6082 18.8312 23.5849C15.6598 25.9125 13.3205 29.1904 12.1554 32.9374C10.9903 36.6843 11.0604 40.7048 12.3556 44.4091C13.6512 48.1134 16.1043 51.3071 19.3546 53.5234C22.6054 55.7397 26.4828 56.862 30.42 56.7255C34.3573 56.5891 38.1476 55.2016 41.2355 52.7656C44.3232 50.3296 46.5466 46.9733 47.5802 43.1884C48.458 39.9739 48.4382 36.5932 47.5401 33.4072C47.2753 32.4674 47.72 31.445 48.6339 31.0917L55.7892 28.33C56.7032 27.9772 57.737 28.4279 58.0362 29.3574C59.7807 34.7791 59.918 40.6019 58.4112 46.1201C56.7488 52.208 53.1726 57.6062 48.2062 61.5244C43.2396 65.4424 37.1434 67.675 30.8106 67.8945Z" fill="black"/>
</g>
<defs>
<clipPath id="clip0_2241_128">
<rect width="59.3457" height="59.3457" fill="white" transform="translate(59.3457 68.0532) rotate(-180)"/>
</clipPath>
</defs>
</svg>
